PathFileType	4	(X/Y/Z)	D:\Long Term Storage\D'Arcy Smith\Coord17.trc
DataRate	CameraRate	NumFrames	NumMarkers	Units	OrigDataRate	OrigDataStartFrame	OrigNumFrames
120.00	120.00	      87	4	mm	120.00	4247	      4853
Frame#	Time	M1			M2			M3			M4			
		X1	Y1	Z1	X2	Y2	Z2	X3	Y3	Z3	X4	Y4	Z4	

4247	35.383	565.16541	312.38553	165.34348	1024.90967	387.77466	39.45421							
4248	35.392	568.09375	307.79111	182.90378	1023.72601	380.80051	48.78045							
4249	35.400	570.45343	303.03693	200.03119	1022.57819	374.37961	58.55552							
4250	35.408	572.86707	298.77216	217.44093	1021.22614	367.88538	68.82029							
4251	35.417	574.72278	294.88010	235.69812	1019.93018	361.42447	79.62652							
4252	35.425	576.61896	292.34534	254.32249	1018.73224	354.90878	91.26350							
4253	35.433	578.81915	289.61877	273.42200	1017.23541	349.01648	104.90874							
4254	35.442	580.46503	287.64856	291.83826	1016.09918	343.59644	116.65001							
4255	35.450	581.97430	287.24911	311.12326	1013.98059	337.43390	129.80959							
4256	35.458	583.85608	288.44543	331.79080	1013.92139	331.97925	143.61362							
4257	35.467	585.27216	290.01630	351.21625	1012.01282	327.18524	157.29118							
4258	35.475	586.00061	291.15701	368.42108	1010.26178	322.87549	170.72017							
4259	35.483	587.20398	294.55298	387.02420	1008.05939	319.09204	184.68253							
4260	35.492	588.70227	300.25916	406.25681	1006.12115	315.88550	198.94810							
4261	35.500	590.01978	305.25055	424.84674	1004.11401	313.17587	213.59380							
4262	35.508	590.34644	311.60440	442.04160	1001.88116	311.00803	228.00227							
4263	35.517	590.68304	317.91464	457.82028	999.77863	309.50946	242.92499							
4264	35.525	591.02460	324.60477	471.22351	997.51459	308.63757	257.81845							
4265	35.533	591.26636	332.25220	488.63300	995.23566	308.45618	272.22018							
4266	35.542	591.40204	339.74002	501.28040	993.02039	308.77728	286.34927							
4267	35.550	591.36206	347.55081	513.32629	990.66333	310.10831	300.56375							
4268	35.558	591.26160	355.47943	524.47064	988.44788	311.80637	314.11487							
4269	35.567	591.18280	363.44949	534.33087	986.46216	313.94742	327.68741							
4270	35.575	590.80890	371.39737	543.74866	984.51483	316.60977	340.41122							
4271	35.583	590.32849	379.55627	552.23889	982.50513	319.73917	353.03522							
4272	35.592	589.92999	387.29489	559.89551	980.46320	323.38947	364.86172							
4273	35.600	589.33130	394.92645	566.85193	978.66779	327.34174	376.22180							
4274	35.608	589.04187	402.58212	573.71124	976.72894	331.49762	387.18445							
4275	35.617	588.22986	409.69556	578.92377	974.98926	335.93643	397.82648							
4276	35.625	587.48169	416.57379	583.93402	973.15179	340.40887	407.83463							
4277	35.633	586.47931	422.93253	588.14862	971.51740	344.95270	416.96439							
4278	35.642	585.66779	429.01797	592.04785	970.04871	349.63870	425.85715							
4279	35.650	584.77325	434.57846	595.05859	968.41614	354.10129	434.05762							
4280	35.658	583.73615	439.52509	597.91974	967.03619	358.95770	440.86517							
4281	35.667	583.01147	444.10361	600.12122	965.81702	363.78134	447.94962							
4282	35.675	582.14227	448.24313	602.30542	964.35962	367.92841	454.40979							
4283	35.683	581.30365	452.02844	603.74921	962.31415	372.24399	459.86023							
4284	35.692	580.59735	455.19583	604.75543	961.22961	376.00708	464.94882							
4285	35.700	579.83551	457.80194	605.58362	960.22607	379.41248	469.21405							
4286	35.708	579.17688	459.84848	605.92365	959.21198	382.46402	473.31891							
4287	35.717	578.49750	461.25433	606.03558	958.36273	385.14218	476.55911							
4288	35.725	577.78815	461.99573	605.52606	957.48267	387.39682	479.12750							
4289	35.733	577.13971	462.09094	604.71503	956.71606	389.43103	481.01486							
4290	35.742	576.67078	461.57660	603.42297	956.15656	390.75922	482.29633							
4291	35.750	576.18915	460.37701	601.59485	955.55017	391.80414	483.11740							
4292	35.758	575.70294	458.42255	599.27551	955.07355	392.50095	483.25803							
4293	35.767	575.23901	455.80020	596.42688	954.77704	392.64041	482.81296							
4294	35.775	574.73285	452.60196	592.99359	954.46118	392.31528	481.75195							
4295	35.783	574.29431	448.76981	588.92914	954.29498	391.42010	479.84189							
4296	35.792	573.93762	444.20236	583.80548	954.08948	390.36890	477.87210							
4297	35.800	573.43384	438.83392	578.42645	954.22296	388.86768	474.93240							
4298	35.808	572.86255	432.41327	571.53674	954.53870	386.85226	471.33112							
4299	35.817	572.54297	426.06793	564.23065	954.63983	384.54834	467.16885							
4300	35.825	572.35638	419.14624	556.04602	955.00226	381.92389	462.85135							
4301	35.833	572.37640	411.06143	546.64032	955.55658	379.11267	457.51602							
4302	35.842	572.42798	403.07278	536.71997	956.15338	376.10349	451.41214							
4303	35.850	572.42749	394.69412	525.56665	956.93689	372.99542	444.80862							
4304	35.858	572.52795	385.82828	513.54913	957.78687	369.40268	437.16064							
4305	35.867	572.52600	376.91141	500.15775	958.80280	365.88193	429.11542							
4306	35.875	572.49011	368.10550	485.90314	959.97479	362.47171	420.53235							
4307	35.883	572.14313	359.13443	470.44965	962.02612	358.70657	411.95026							
4308	35.892	571.91272	350.51227	454.06348	962.75116	355.35577	401.32312							
4309	35.900	571.41272	342.25409	436.86188	965.32556	351.95279	391.12222							
4310	35.908	571.24963	333.79822	418.55566	966.81628	348.78940	379.92191							
4311	35.917	570.51605	326.70212	399.53326	968.67035	345.76947	367.95102							
4312	35.925	568.41333	319.04895	380.83185	970.60602	343.16992	355.96667							
4313	35.933	567.15753	313.35251	360.50214	972.62109	340.69501	343.09695							
4314	35.942	565.37024	308.07846	338.31094	974.87762	338.54544	329.96234							
4315	35.950	562.46466	304.39243	313.85626	977.13312	336.77145	316.68045							
4316	35.958	560.08099	301.56979	292.74210	979.69769	335.28918	302.47238							
4317	35.967	558.03314	300.92798	272.40970	981.71600	334.48557	287.65628							
4318	35.975	555.27484	300.20810	251.45563	985.38385	333.77670	273.31189							
4319	35.983	552.25549	300.90979	232.42960	988.36420	333.51700	258.64957							
4320	35.992	549.33649	301.66245	212.88979	991.50348	333.89047	243.58582							
4321	36.000	546.39789	304.37579	191.64682	994.64819	334.66998	227.97867							
4322	36.008	543.33630	307.73618	173.55211	997.98297	335.91461	212.86829							
4323	36.017	539.89325	311.24481	154.84149	1001.16193	337.76691	197.60034							
4324	36.025	536.95752	316.05118	138.59280	1004.37891	340.43118	183.91718							
4325	36.033	533.91504	321.52869	123.82341	1007.51727	343.30655	169.26202							
4326	36.042	531.33240	327.68173	110.53075	1010.64764	346.60730	154.82004							
4327	36.050	528.61469	333.96701	97.82703	1013.68823	350.40915	140.97302							
4328	36.058	526.23688	340.59900	86.36012	1016.16705	354.91962	126.58479							
4329	36.067	523.78168	348.36404	75.91877	1018.20367	359.56775	113.30832							
4330	36.075	522.07056	355.33670	66.88403	1021.20782	364.28915	99.96185							
4331	36.083	520.29083	362.14212	58.66364	1024.52856	370.00241	85.75251							
4332	36.092	518.87494	368.60599	51.51710	1027.89063	376.08038	73.53998							
4333	36.100	517.90216	374.94940	45.03714	1030.65771	381.95050	62.23362							
